<svg width="375" height="812" viewBox="0 0 375 812" fill="none" xmlns="http://www.w3.org/2000/svg">
<g clip-path="url(#clip0_1693_4761)">
<rect width="375" height="812" rx="24" fill="#FEFEFE"/>
<path d="M65.4192 192.044C63.1041 189.57 58.9609 191.322 59.1231 194.706L59.6093 204.85C59.6604 205.917 59.2401 206.953 58.46 207.683L51.0441 214.621C48.5697 216.936 50.3216 221.08 53.7062 220.917L63.85 220.431C64.9171 220.38 65.9531 220.8 66.6833 221.581L73.6212 228.996C75.9363 231.471 80.0795 229.719 79.9173 226.334L79.4311 216.191C79.38 215.123 79.8004 214.087 80.5805 213.357L87.9963 206.419C90.4707 204.104 88.7188 199.961 85.3343 200.123L75.1905 200.609C74.1233 200.66 73.0873 200.24 72.3571 199.46L65.4192 192.044Z" fill="#F9F9EF"/>
<path fill-rule="evenodd" clip-rule="evenodd" d="M321.272 94.4685C311.18 104.56 311.18 120.921 321.272 131.012L338.468 148.209C348.56 158.3 364.921 158.3 375.012 148.209L392.209 131.012C402.3 120.921 402.3 104.56 392.209 94.4685L375.012 77.2716C364.921 67.1805 348.56 67.1805 338.468 77.2716L321.272 94.4685ZM334.169 107.366C331.201 110.334 331.201 115.146 334.169 118.114L351.366 135.311C354.334 138.279 359.146 138.279 362.114 135.311L379.311 118.114C382.279 115.146 382.279 110.334 379.311 107.366L362.114 90.1693C359.146 87.2013 354.334 87.2013 351.366 90.1693L334.169 107.366Z" fill="#F8F2FF"/>
<path fill-rule="evenodd" clip-rule="evenodd" d="M-58.8658 683.496C-75.5085 700.138 -75.5085 727.121 -58.8658 743.764L-30.5042 772.126C-13.8616 788.768 13.1215 788.768 29.7641 772.126L58.1257 743.764C74.7683 727.121 74.7684 700.138 58.1257 683.496L29.7641 655.134C13.1215 638.491 -13.8616 638.491 -30.5042 655.134L-58.8658 683.496ZM-37.5946 704.767C-42.4895 709.662 -42.4895 717.598 -37.5946 722.493L-9.23305 750.854C-4.33815 755.749 3.59804 755.749 8.49293 750.854L36.8545 722.493C41.7494 717.598 41.7494 709.662 36.8545 704.767L8.49293 676.405C3.59804 671.51 -4.33815 671.51 -9.23305 676.405L-37.5946 704.767Z" fill="#F8F2FF"/>
</g>
<rect x="0.5" y="0.5" width="374" height="811" rx="23.5" stroke="#E4E4E4"/>
<defs>
<clipPath id="clip0_1693_4761">
<rect width="375" height="812" rx="24" fill="white"/>
</clipPath>
</defs>
</svg>
